<svg width="257" height="360" viewBox="0 0 257 360" fill="none" xmlns="http://www.w3.org/2000/svg">
<path d="M205.409 163.026C195.556 172.884 183.223 180.249 168.409 185.121C180.633 187.061 191.732 192.072 201.704 200.154C211.999 208.237 220.041 218.259 225.832 230.22C231.944 242.182 235 254.952 235 268.53C235 285.665 230.657 301.183 221.971 315.084C218.837 319.984 215.178 324.527 210.996 328.711C203.59 336.122 194.541 342.409 183.85 347.575C167.444 355.334 147.981 359.213 125.462 359.213H0V21.2132H120.637C143.477 21.2132 162.94 25.0927 179.025 32.8516C195.11 40.2873 207.173 50.471 215.216 63.4026C223.258 76.3342 227.279 90.8822 227.279 107.047C227.279 127.091 221.81 143.74 210.873 156.995C209.145 159.1 207.324 161.11 205.409 163.026ZM43.9117 167.179H117.741C138.33 167.179 154.254 162.329 165.513 152.631C176.773 142.932 182.402 129.515 182.402 112.381C182.402 95.2467 176.773 81.8301 165.513 72.1314C154.254 62.4327 138.008 57.5833 116.776 57.5833H43.9117V167.179ZM121.602 322.843C143.477 322.843 160.527 317.67 172.752 307.325C184.976 296.98 191.088 282.593 191.088 264.166C191.088 245.415 184.654 230.705 171.786 220.037C158.919 209.045 141.708 203.549 120.154 203.549H43.9117V322.843H121.602Z" fill="#FFD700"/>
<path d="M236.429 42.1894C228.386 29.2578 216.323 19.0741 200.238 11.6385L179.025 32.8517C195.109 40.2873 207.173 50.471 215.216 63.4026L236.429 42.1894Z" fill="#FFD700"/>
<path d="M248.492 85.8336C248.492 69.669 244.471 55.121 236.429 42.1894L215.216 63.4026C223.258 76.3342 227.279 90.8822 227.279 107.047L248.492 85.8336Z" fill="#FFD700"/>
<path d="M200.238 11.6384C184.153 3.87948 164.69 0 141.85 0L120.637 21.2132C143.477 21.2132 162.94 25.0927 179.025 32.8517L200.238 11.6384Z" fill="#FFD700"/>
<path d="M232.086 135.782C243.024 122.527 248.492 105.878 248.492 85.8336L227.279 107.047C227.279 127.091 221.81 143.74 210.873 156.995L232.086 135.782Z" fill="#FFD700"/>
<path d="M186.727 50.9182C197.986 60.6169 203.616 74.0335 203.616 91.1679L182.402 112.381C182.402 95.2467 176.773 81.8301 165.513 72.1314L186.727 50.9182Z" fill="#FFD700"/>
<path d="M137.989 36.3701C159.221 36.3701 175.467 41.2195 186.727 50.9182L165.513 72.1314C154.254 62.4327 138.008 57.5834 116.776 57.5834L137.989 36.3701Z" fill="#FFD700"/>
<path d="M226.622 141.813C228.537 139.897 230.358 137.886 232.086 135.782L210.873 156.995C209.145 159.1 207.324 161.11 205.409 163.026L226.622 141.813Z" fill="#FFD700"/>
<path d="M203.616 91.1679C203.616 108.302 197.986 121.719 186.727 131.418L170.682 147.462C169.116 149.288 167.393 151.011 165.513 152.631L170.682 147.462C178.496 138.348 182.402 126.655 182.402 112.381L203.616 91.1679Z" fill="#FFD700"/>
<path d="M141.85 0L21.2132 0L0 21.2132H120.637L141.85 0Z" fill="#FFD700"/>
<path d="M65.1249 36.3701H137.989L116.776 57.5834H43.9117L65.1249 36.3701Z" fill="#FFD700"/>
<path d="M189.622 163.908C204.42 159.041 216.742 151.687 226.59 141.845L205.409 163.026C195.556 172.884 183.223 180.249 168.409 185.121L189.622 163.908Z" fill="#FFD700"/>
<path d="M247.045 209.007C241.254 197.045 233.212 187.023 222.917 178.941L201.704 200.154C211.999 208.237 220.041 218.259 225.832 230.22L247.045 209.007Z" fill="#FFD700"/>
<path d="M222.918 178.941C212.945 170.859 201.846 165.848 189.622 163.908L168.409 185.121C180.633 187.061 191.732 192.072 201.704 200.154L222.918 178.941Z" fill="#FFD700"/>
<path d="M186.727 131.418C175.467 141.116 159.543 145.966 138.954 145.966L117.741 167.179C138.33 167.179 154.254 162.329 165.513 152.631L186.727 131.418Z" fill="#FFD700"/>
<path d="M256.213 247.317C256.213 233.739 253.157 220.969 247.045 209.007L225.832 230.22C231.944 242.182 235 254.952 235 268.53L256.213 247.317Z" fill="#FFD700"/>
<path d="M193 198.824C205.868 209.492 212.301 224.202 212.301 242.953L191.088 264.166C191.088 245.415 184.654 230.705 171.786 220.037L193 198.824Z" fill="#FFD700"/>
<path d="M243.184 293.871C251.87 279.969 256.213 264.451 256.213 247.317L235 268.53C235 285.665 230.657 301.183 221.971 315.084L243.184 293.871Z" fill="#FFD700"/>
<path d="M141.367 182.336C162.921 182.336 180.132 187.832 193 198.824L171.786 220.037C158.919 209.045 141.708 203.549 120.154 203.549L141.367 182.336Z" fill="#FFD700"/>
<path d="M65.1249 145.966V36.3701L43.9117 57.5834V167.179L65.1249 145.966Z" fill="#FFD700"/>
<path d="M138.954 145.966H65.1249L43.9117 167.179H117.741L138.954 145.966Z" fill="#FFD700"/>
<path d="M212.301 242.953C212.301 261.38 206.189 275.767 193.965 286.112L178.911 301.166C177.067 303.357 175.014 305.41 172.752 307.325L178.911 301.166C187.029 291.516 191.088 279.183 191.088 264.166L212.301 242.953Z" fill="#FFD700"/>
<path d="M232.209 307.498C236.391 303.314 240.05 298.771 243.184 293.871L221.971 315.084C218.837 319.984 215.178 324.527 210.996 328.711L232.209 307.498Z" fill="#FFD700"/>
<path d="M65.1249 182.336H141.367L120.154 203.549H43.9117L65.1249 182.336Z" fill="#FFD700"/>
<path d="M205.063 326.362C215.739 321.204 224.776 314.927 232.176 307.531L210.996 328.711C203.59 336.122 194.541 342.409 183.85 347.575L205.063 326.362Z" fill="#FFD700"/>
<path d="M193.965 286.112C181.74 296.457 164.69 301.63 142.815 301.63L121.602 322.843C143.477 322.843 160.527 317.67 172.752 307.325L193.965 286.112Z" fill="#FFD700"/>
<path d="M21.2132 0V338L0 359.213L0 21.2132L21.2132 0Z" fill="#FFD700"/>
<path d="M146.675 338C169.194 338 188.657 334.121 205.063 326.362L183.85 347.575C167.444 355.334 147.981 359.213 125.462 359.213L146.675 338Z" fill="#FFD700"/>
<path d="M65.1249 301.63V182.336L43.9117 203.549V322.843L65.1249 301.63Z" fill="#FFD700"/>
<path d="M142.815 301.63H65.1249L43.9117 322.843H121.602L142.815 301.63Z" fill="#FFD700"/>
<path d="M21.2132 338H146.675L125.462 359.213H0L21.2132 338Z" fill="#FFD700"/>
<path d="M189.622 163.908C201.846 165.848 212.945 170.859 222.918 178.941C233.212 187.023 241.254 197.045 247.045 209.007C253.157 220.969 256.213 233.739 256.213 247.317C256.213 264.451 251.87 279.969 243.184 293.871C234.499 307.449 221.792 318.279 205.063 326.362C188.657 334.121 169.194 338 146.675 338H21.2132V0H141.85C164.69 0 184.153 3.87948 200.238 11.6384C216.323 19.0741 228.386 29.2578 236.429 42.1894C244.471 55.121 248.492 69.669 248.492 85.8336C248.492 105.878 243.024 122.527 232.086 135.782C221.47 148.714 207.315 158.089 189.622 163.908ZM65.1249 145.966H138.954C159.543 145.966 175.467 141.116 186.727 131.418C197.986 121.719 203.616 108.302 203.616 91.1679C203.616 74.0335 197.986 60.6169 186.727 50.9182C175.467 41.2195 159.221 36.3702 137.989 36.3702H65.1249V145.966ZM142.815 301.63C164.69 301.63 181.74 296.457 193.965 286.112C206.189 275.767 212.301 261.38 212.301 242.953C212.301 224.202 205.868 209.492 193 198.824C180.132 187.832 162.921 182.336 141.367 182.336H65.1249V301.63H142.815Z" fill="#25506F"/>
</svg>
